<svg width="928" height="900" viewBox="0 0 928 900" fill="none" xmlns="http://www.w3.org/2000/svg">
<g opacity="0.3" filter="url(#filter0_f_584_755)">
<ellipse cx="664.5" cy="370.125" rx="125.5" ry="130.5" fill="#3BA708"/>
<path d="M789.5 370.125C789.5 441.94 733.517 500.125 664.5 500.125C595.483 500.125 539.5 441.94 539.5 370.125C539.5 298.309 595.483 240.125 664.5 240.125C733.517 240.125 789.5 298.309 789.5 370.125Z" stroke="url(#paint0_linear_584_755)"/>
</g>
<g filter="url(#filter1_d_584_755)">
<path d="M289 347.625C289 308.965 401.6 277.625 540.5 277.625C599.592 277.625 653.924 283.297 696.851 292.792C754.827 305.615 792 325.412 792 347.625" stroke="#FFD807"/>
</g>
<g filter="url(#filter2_d_584_755)">
<path d="M289 567.625C289 528.965 401.6 497.625 540.5 497.625C599.592 497.625 653.924 503.297 696.851 512.792C754.827 525.615 792 545.412 792 567.625" stroke="#FFD807"/>
</g>
<g opacity="0.3" filter="url(#filter3_f_584_755)">
<ellipse cx="563.911" cy="541.654" rx="215.417" ry="234.565" transform="rotate(-11.2651 563.911 541.654)" fill="#3BA708"/>
<path d="M774.688 499.67C799.949 626.49 726.006 748.03 609.636 771.209C493.266 794.389 378.396 710.458 353.135 583.637C327.874 456.817 401.817 335.277 518.187 312.098C634.557 288.919 749.427 372.85 774.688 499.67Z" stroke="url(#paint1_linear_584_755)"/>
</g>
<g opacity="0.3" filter="url(#filter4_f_584_755)">
<ellipse cx="444.355" cy="450.427" rx="242.224" ry="251.799" transform="rotate(-23.0004 444.355 450.427)" fill="#FFD807"/>
<path d="M666.863 355.976C721.1 483.748 665.418 629.591 542.547 681.748C419.676 733.905 276.085 672.65 221.848 544.878C167.61 417.106 223.292 271.263 346.163 219.107C469.034 166.95 612.626 228.204 666.863 355.976Z" stroke="url(#paint2_linear_584_755)"/>
</g>
<g filter="url(#filter5_b_584_755)">
<path d="M544 422.639C542.701 422.639 541.392 422.625 540.093 422.625C494.425 422.625 451.604 425.748 414.704 431.198C413.348 431.401 412.011 431.603 410.673 431.806C410.091 431.9 409.498 431.986 408.916 432.08C407.894 432.239 406.872 432.406 405.859 432.572C405.381 432.651 404.913 432.724 404.436 432.803C403.089 433.027 401.761 433.252 400.434 433.476C399.87 433.57 399.316 433.671 398.752 433.765C397.759 433.938 396.775 434.112 395.801 434.285C395.333 434.372 394.874 434.452 394.406 434.538C393.107 434.777 391.818 435.015 390.538 435.261C390.003 435.362 389.468 435.464 388.933 435.572C387.978 435.753 387.032 435.941 386.096 436.129C385.647 436.215 385.189 436.309 384.74 436.396C383.479 436.649 382.237 436.91 381.005 437.17C380.499 437.278 379.992 437.387 379.486 437.495C378.569 437.69 377.671 437.885 376.764 438.081C376.324 438.175 375.875 438.276 375.436 438.37C374.223 438.637 373.029 438.912 371.835 439.187C371.357 439.295 370.889 439.404 370.421 439.519C369.533 439.729 368.654 439.939 367.775 440.148C367.355 440.249 366.935 440.351 366.524 440.452C365.359 440.741 364.203 441.023 363.057 441.319C362.617 441.428 362.187 441.543 361.758 441.652C360.898 441.876 360.038 442.1 359.188 442.324C358.796 442.425 358.405 442.534 358.013 442.635C356.896 442.939 355.788 443.242 354.689 443.546C354.288 443.662 353.887 443.77 353.485 443.886C352.654 444.124 351.833 444.356 351.021 444.594C350.649 444.703 350.276 444.811 349.913 444.919C348.843 445.238 347.783 445.556 346.742 445.881C346.379 445.997 346.025 446.105 345.662 446.221C344.86 446.474 344.058 446.727 343.274 446.98C342.94 447.088 342.596 447.197 342.262 447.305C341.24 447.638 340.237 447.97 339.243 448.31C338.919 448.418 338.594 448.534 338.269 448.643C337.495 448.91 336.741 449.177 335.986 449.445C335.671 449.561 335.356 449.669 335.041 449.778C334.076 450.125 333.13 450.479 332.185 450.833C331.898 450.941 331.621 451.05 331.334 451.158C330.599 451.44 329.863 451.722 329.147 452.011C328.86 452.127 328.574 452.235 328.287 452.351C327.38 452.713 326.492 453.081 325.613 453.45C325.364 453.551 325.116 453.66 324.868 453.768C324.17 454.064 323.473 454.368 322.795 454.664C322.537 454.78 322.279 454.896 322.021 455.004C321.181 455.38 320.34 455.763 319.528 456.146C319.318 456.248 319.108 456.349 318.898 456.45C318.239 456.761 317.589 457.079 316.94 457.397C316.71 457.513 316.472 457.628 316.252 457.737C315.469 458.127 314.704 458.525 313.95 458.922C313.768 459.016 313.596 459.11 313.415 459.204C312.804 459.537 312.192 459.862 311.6 460.202C311.39 460.318 311.18 460.433 310.979 460.549C310.263 460.954 309.565 461.359 308.887 461.771C308.734 461.858 308.601 461.952 308.448 462.038C307.884 462.385 307.321 462.732 306.776 463.086C306.595 463.202 306.413 463.318 306.232 463.433C305.592 463.853 304.961 464.272 304.35 464.699C304.235 464.778 304.121 464.865 304.006 464.944C303.49 465.306 302.984 465.675 302.497 466.036C302.344 466.152 302.182 466.267 302.029 466.39C301.465 466.824 300.911 467.258 300.376 467.692C300.281 467.764 300.204 467.843 300.109 467.916C299.65 468.292 299.211 468.675 298.781 469.058C298.648 469.173 298.514 469.296 298.38 469.412C297.893 469.853 297.415 470.301 296.966 470.749C296.899 470.815 296.842 470.88 296.775 470.945C296.384 471.342 296.002 471.74 295.629 472.145C295.524 472.26 295.409 472.383 295.304 472.499C294.903 472.954 294.511 473.41 294.139 473.865C294.091 473.916 294.053 473.974 294.015 474.032C293.69 474.444 293.375 474.863 293.079 475.282C292.993 475.405 292.907 475.521 292.821 475.644C292.506 476.106 292.2 476.576 291.913 477.039C291.885 477.082 291.866 477.126 291.837 477.169C291.579 477.603 291.35 478.037 291.121 478.47C291.063 478.593 290.996 478.716 290.939 478.832C290.71 479.309 290.49 479.779 290.299 480.256C290.29 480.285 290.28 480.314 290.27 480.343C290.089 480.798 289.936 481.246 289.802 481.702C289.764 481.825 289.726 481.948 289.688 482.07C289.554 482.555 289.42 483.039 289.325 483.523C289.325 483.538 289.325 483.552 289.325 483.567C289.229 484.037 289.162 484.514 289.115 484.991C289.105 485.114 289.086 485.237 289.076 485.36C289.029 485.851 289 486.343 289 486.834V538.625C289 529.407 296.603 520.653 310.263 512.73C327.409 502.789 354.116 494.172 387.414 487.644C387.94 487.543 388.465 487.442 388.99 487.341C389.678 487.21 390.366 487.073 391.063 486.943C391.416 486.878 391.77 486.813 392.123 486.748C393.709 486.451 395.304 486.162 396.918 485.873C397.071 485.844 397.234 485.815 397.386 485.786C403.032 484.789 408.839 483.849 414.809 482.967C451.68 477.523 494.454 474.407 540.084 474.407C541.392 474.407 542.691 474.407 543.99 474.422V422.639H544Z" fill="white" fill-opacity="0.1"/>
</g>
<g filter="url(#filter6_b_584_755)">
<path d="M683 544.625V630.911C748.849 642.467 792 661.766 792 683.625V597.338C792 575.48 748.849 556.181 683 544.625Z" fill="white" fill-opacity="0.06"/>
</g>
<path d="M791.5 745.625C791.5 755.03 784.647 764.106 771.961 772.454C759.296 780.788 740.936 788.313 718.203 794.64C672.746 807.293 609.918 815.125 540.5 815.125C471.082 815.125 408.254 807.293 362.797 794.64C340.064 788.313 321.704 780.788 309.039 772.454C296.353 764.106 289.5 755.03 289.5 745.625C289.5 736.22 296.353 727.143 309.039 718.795C321.704 710.461 340.064 702.936 362.797 696.609C408.254 683.957 471.082 676.125 540.5 676.125C599.563 676.125 653.858 681.794 696.743 691.28C725.708 697.687 749.441 705.828 765.921 715.123C782.438 724.438 791.5 734.813 791.5 745.625Z" stroke="#FFD807" stroke-opacity="0.2"/>
<path fill-rule="evenodd" clip-rule="evenodd" d="M537.4 383.576C567.436 369.793 563.93 335.067 545.56 286.841C527.19 238.614 481.092 204.262 470.874 208.947C460.655 213.631 449.741 274.168 468.111 322.394C486.482 370.621 537.4 378.192 537.4 383.576Z" fill="url(#paint3_linear_584_755)"/>
<path d="M750.019 279.476C755.169 287.805 727.738 366.386 661.785 386.042C595.833 405.699 573.51 422.452 573.51 422.452C573.51 422.452 606.161 318.963 646.569 284.691C686.977 250.419 744.879 271.148 750.019 279.476Z" fill="#2D6541"/>
<path d="M750.019 279.476C740.977 282.918 732.123 286.789 723.464 291.035C714.768 295.225 706.23 299.725 697.856 304.483C689.498 309.284 681.266 314.308 673.273 319.67C665.271 325.02 657.405 330.584 649.874 336.579C647.947 338.026 646.105 339.566 644.234 341.082C642.372 342.609 640.483 344.091 638.688 345.688L633.225 350.408L627.905 355.278C620.865 361.826 614.051 368.648 607.652 375.836L605.225 378.515C604.422 379.412 603.668 380.356 602.885 381.265L598.235 386.789L593.779 392.479L591.556 395.325L589.44 398.255C583.581 405.927 578.567 414.186 573.501 422.43L576.895 416.016L578.618 412.816L580.469 409.693L584.203 403.459L588.183 397.375L590.194 394.34L592.333 391.392L596.619 385.506L601.151 379.803C601.916 378.86 602.651 377.893 603.436 376.963L605.808 374.206C618.397 359.399 632.676 346.081 647.938 334.079C663.248 322.123 679.598 311.529 696.673 302.319C705.212 297.704 713.942 293.485 722.828 289.608C727.269 287.684 731.773 285.872 736.289 284.145C740.816 282.419 745.374 280.802 750.023 279.434L750.019 279.476Z" fill="url(#paint4_linear_584_755)"/>
<path d="M750.019 279.476C740.977 282.918 732.123 286.789 723.464 291.035C714.768 295.225 706.23 299.725 697.856 304.483C689.499 309.284 681.266 314.307 673.273 319.67C665.271 325.02 657.405 330.584 649.874 336.579C647.947 338.026 646.105 339.566 644.234 341.082C642.372 342.609 640.483 344.091 638.688 345.688L633.225 350.408L627.905 355.278C620.866 361.826 614.051 368.648 607.652 375.836L605.225 378.515C604.422 379.412 603.668 380.356 602.885 381.265L598.235 386.789L593.779 392.479L591.556 395.325L589.44 398.255C583.581 405.927 578.567 414.186 573.501 422.43C573.501 422.43 595.836 405.667 661.777 386.02C727.729 366.364 755.161 287.783 750.01 279.454L750.019 279.476Z" fill="url(#paint5_linear_584_755)"/>
<path fill-rule="evenodd" clip-rule="evenodd" d="M619.883 207.652C606.409 204.096 538.038 240.698 521.675 302.757C505.312 364.817 544.4 425.655 544.4 425.655C544.4 425.655 614.969 379.971 630.257 322.003C645.544 264.036 627.157 209.567 619.883 207.652Z" fill="url(#paint6_linear_584_755)"/>
<path d="M619.883 207.652C613.427 215.097 607.282 222.794 601.529 230.77C595.727 238.711 590.299 246.908 585.239 255.31C584.011 257.435 582.704 259.511 581.536 261.663L578.013 268.106C576.865 270.271 575.827 272.488 574.739 274.68C574.211 275.782 573.641 276.87 573.143 277.986L571.687 281.348L570.232 284.711L569.499 286.391L568.858 288.102L566.312 294.968C565.528 297.273 564.897 299.625 564.183 301.959C563.847 303.132 563.45 304.279 563.175 305.47L562.308 309.048C561.083 313.798 560.073 318.6 559.022 323.398C558.511 325.804 558.074 328.217 557.594 330.626L556.891 334.241L556.239 337.872C554.414 347.528 552.99 357.265 551.525 366.998C550.112 376.736 548.854 386.5 547.678 396.283C546.44 406.059 545.42 415.857 544.421 425.658C545.159 405.954 546.736 386.27 549.101 366.674C551.498 347.082 554.55 327.544 559.264 308.296L560.156 304.689C560.442 303.489 560.864 302.303 561.202 301.108C561.94 298.735 562.609 296.324 563.419 293.968L566.05 286.985L566.715 285.245L567.471 283.546L568.993 280.148L570.525 276.751C571.045 275.627 571.646 274.542 572.196 273.431C573.337 271.235 574.418 269.001 575.619 266.831L579.291 260.37C580.522 258.214 581.891 256.155 583.18 254.047C593.735 237.307 606.065 221.718 619.883 207.652Z" fill="#9DCF7B"/>
<path d="M619.883 207.652C613.426 215.097 607.281 222.794 601.529 230.77C595.727 238.711 590.299 246.908 585.239 255.31C584.011 257.435 582.703 259.51 581.536 261.663L578.013 268.106C576.865 270.271 575.827 272.488 574.739 274.68C574.211 275.782 573.641 276.87 573.143 277.986L571.687 281.348L570.232 284.711L569.499 286.391L568.858 288.102L566.312 294.968C565.528 297.273 564.896 299.625 564.183 301.958C563.847 303.132 563.45 304.279 563.175 305.47L562.307 309.048C561.083 313.797 560.073 318.6 559.022 323.398C558.511 325.804 558.074 328.217 557.594 330.626L556.891 334.241L556.238 337.872C554.414 347.527 552.99 357.265 551.525 366.998C550.112 376.736 548.854 386.5 547.678 396.283C546.44 406.059 545.42 415.857 544.421 425.657C544.421 425.657 614.99 379.973 630.277 322.006C645.533 264.035 627.157 209.567 619.883 207.652Z" fill="url(#paint7_linear_584_755)"/>
<path fill-rule="evenodd" clip-rule="evenodd" d="M530.268 703.232C616.678 711.765 689.235 693.579 700.476 579.745C711.717 465.912 650.863 365.586 564.453 357.053C478.044 348.52 398.805 435.012 387.564 548.846C376.323 662.679 443.859 694.699 530.268 703.232Z" fill="url(#paint8_linear_584_755)"/>
<path d="M564.484 357.056C549.63 356.324 538.615 378.572 533.049 390.083C513.526 434.07 504.614 482.012 497.844 529.42C494.631 553.236 492.223 577.194 491.321 601.217C490.697 627.629 490.099 659.617 502.099 683.623C507.733 694.708 517.799 702.053 530.299 703.245C512.246 701.945 501.967 689.111 496.542 672.924C489.209 649.82 488.944 625.178 489.51 601.164C490.325 577.069 492.634 553.049 495.771 529.152C502.702 481.603 511.848 433.526 532.125 389.656C538.051 378.012 549.473 355.994 564.483 357.067L564.484 357.056Z" fill="#E2AD13"/>
<path d="M564.484 357.056C553.225 355.315 542.55 371.896 537.649 380.387C531.445 391.227 526.668 402.826 522.382 414.548C505.676 461.689 496.529 511.267 492.152 561.011C490.144 585.922 489.078 610.957 489.97 635.944C488.7 610.962 489.496 585.889 491.465 560.953C495.496 511.102 504.664 461.411 521.734 414.306C526.083 402.58 530.914 390.975 537.213 380.123C542.295 371.608 553.197 355.175 564.496 357.047L564.484 357.056Z" fill="white" fill-opacity="0.5"/>
<path fill-rule="evenodd" clip-rule="evenodd" d="M493.368 524.464C520.666 528.871 527.258 538.969 526.068 545.182C524.877 551.394 512.105 571.137 484.03 565.772C458.901 560.971 466.764 528.23 466.764 528.23C468.094 521.244 493.368 524.464 493.368 524.464Z" fill="url(#paint9_linear_584_755)"/>
<path fill-rule="evenodd" clip-rule="evenodd" d="M526.068 545.182C526.216 544.419 526.234 543.602 526.129 542.752C522.129 539.89 515.546 537.246 505.337 535.598C505.337 535.598 485.195 533.031 484.131 538.595C484.131 538.595 479.12 559.577 492.528 566.664C514.703 567.038 525.016 550.725 526.068 545.182Z" fill="url(#paint10_linear_584_755)"/>
<path d="M511.708 562.015L471.018 555.313C470.54 558.185 471.976 562.015 480.592 564.887C493.867 569.142 506.442 565.365 511.708 562.015Z" fill="white"/>
<path fill-rule="evenodd" clip-rule="evenodd" d="M525.852 541.413C524.121 535.448 515.633 528.07 493.367 524.475C493.367 524.475 468.269 521.283 466.78 528.169C466.689 531.54 466.955 534.264 468.037 534.475C471.014 535.042 521.788 544.297 524.701 542.758C525.067 542.563 525.45 542.087 525.842 541.412L525.852 541.413Z" fill="white"/>
<path d="M496.762 525.062C521.211 529.733 527.2 539.237 526.068 545.182C524.935 551.127 512.105 571.137 484.03 565.772C458.901 560.971 466.764 528.23 466.764 528.23C468.094 521.244 493.368 524.464 493.368 524.464C494.535 524.653 495.671 524.849 496.762 525.062ZM497.741 519.931C496.598 519.713 495.401 519.501 494.202 519.309L494.119 519.3L494.036 519.292C493.766 519.266 487.286 518.447 480.519 518.514C475.822 518.564 463.402 518.692 461.666 527.128C461.262 528.883 457.382 546.912 465.549 559.559C469.465 565.614 475.354 569.44 483.061 570.904C514.64 576.93 529.604 554.548 531.209 546.162C531.818 542.968 533.07 526.674 497.752 519.932L497.741 519.931Z" fill="url(#paint11_linear_584_755)"/>
<path fill-rule="evenodd" clip-rule="evenodd" d="M492.994 526.443C514.051 529.845 522.776 536.627 525.124 542.401C525.359 542.151 525.601 541.829 525.842 541.401C524.112 535.436 515.624 528.058 493.357 524.463C493.357 524.463 468.259 521.271 466.771 528.157C466.765 528.535 466.75 528.9 466.757 529.258C470.125 523.534 492.985 526.431 492.985 526.431L492.994 526.443Z" fill="black" fill-opacity="0.2"/>
<path fill-rule="evenodd" clip-rule="evenodd" d="M436.439 447.746C436.439 447.746 453.578 429.273 468.366 441.525C483.154 453.776 497.338 495.422 504.325 520.235C511.311 545.047 424.289 532.412 424.289 532.412L436.439 447.746Z" fill="url(#paint12_linear_584_755)"/>
<path fill-rule="evenodd" clip-rule="evenodd" d="M451.827 439.891C451.827 439.891 430.689 441.132 425.984 470.71C421.278 500.288 452.29 508.231 460.391 509.85L451.827 439.891Z" fill="url(#paint13_linear_584_755)"/>
<path d="M475.848 472.46C479.181 457.462 471.583 443.015 458.877 440.191C446.172 437.367 433.17 447.236 429.837 462.234C426.504 477.232 434.101 491.679 446.807 494.503C459.513 497.327 472.515 487.458 475.848 472.46Z" fill="white"/>
<path fill-rule="evenodd" clip-rule="evenodd" d="M468.006 444.743C472.735 450.962 474.743 459.863 472.721 468.964C469.382 483.96 456.377 493.834 443.672 491.005C440.293 490.251 437.268 488.672 434.724 486.479C437.79 490.508 441.985 493.42 446.987 494.534C459.692 497.363 472.697 487.489 476.036 472.493C478.487 461.492 475.041 450.781 468.016 444.744L468.006 444.743Z" fill="#CCCCCC"/>
<path d="M463.576 467.338C465.706 457.752 460.85 448.519 452.729 446.714C444.607 444.909 436.297 451.217 434.167 460.802C432.036 470.388 436.893 479.621 445.014 481.426C453.135 483.231 461.446 476.924 463.576 467.338Z" fill="#231F20"/>
<path d="M460.454 463.843C463.505 463.638 465.782 460.556 465.541 456.958C465.299 453.36 462.63 450.61 459.579 450.815C456.528 451.019 454.251 454.102 454.492 457.7C454.734 461.297 457.403 464.048 460.454 463.843Z" fill="white"/>
<path d="M447.957 458.334C449.307 458.494 450.553 457.332 450.741 455.74C450.929 454.148 449.987 452.729 448.637 452.569C447.287 452.41 446.04 453.572 445.853 455.164C445.665 456.756 446.607 458.175 447.957 458.334Z" fill="white"/>
<path d="M450.834 463.413C451.584 463.502 452.277 462.856 452.381 461.972C452.485 461.088 451.962 460.299 451.212 460.211C450.462 460.122 449.769 460.767 449.665 461.652C449.561 462.536 450.084 463.325 450.834 463.413Z" fill="white"/>
<path d="M673.188 572.684C677.673 518.542 672.966 461.078 648.586 411.811C643.729 402.21 637.602 392.608 630.218 384.258C628.909 383.268 627.589 382.288 626.435 381.429C628.516 383.639 630.493 385.944 632.356 388.332C669.706 437.641 676.143 512.565 671.168 572.516C667.761 610.2 659.395 656.653 630.88 683.702C620.523 693.659 607.296 700.047 593.352 703.268C595.509 703.009 597.795 702.709 600.118 702.361C611.847 698.922 622.833 693.121 631.783 684.662C661.154 657.341 669.537 611.037 673.188 572.684Z" fill="#E2AD13"/>
<path fill-rule="evenodd" clip-rule="evenodd" d="M553.938 463.852C553.938 463.852 574.873 441.282 592.939 456.261C611.006 471.24 628.332 522.099 636.855 552.406C645.377 582.713 539.096 567.273 539.096 567.273L553.938 463.852Z" fill="url(#paint14_linear_584_755)"/>
<path fill-rule="evenodd" clip-rule="evenodd" d="M572.73 454.266C572.73 454.266 546.915 455.779 541.164 491.909C535.413 528.039 573.294 537.742 583.187 539.716L572.73 454.266Z" fill="url(#paint15_linear_584_755)"/>
<path d="M602.076 494.034C606.147 475.713 596.865 458.065 581.344 454.615C565.822 451.166 549.939 463.221 545.867 481.542C541.796 499.863 551.078 517.511 566.599 520.96C582.121 524.41 598.004 512.354 602.076 494.034Z" fill="white"/>
<path fill-rule="evenodd" clip-rule="evenodd" d="M592.489 460.185C598.257 467.787 600.712 478.642 598.238 489.767C594.162 508.091 578.286 520.138 562.755 516.694C558.626 515.772 554.933 513.843 551.828 511.164C555.572 516.089 560.699 519.65 566.801 521.009C582.321 524.462 598.207 512.406 602.284 494.081C605.27 480.636 601.06 467.571 592.488 460.195L592.489 460.185Z" fill="#CCCCCC"/>
<path d="M587.09 487.788C589.692 476.079 583.757 464.799 573.833 462.594C563.91 460.388 553.756 468.092 551.154 479.801C548.552 491.51 554.487 502.79 564.41 504.995C574.334 507.2 584.488 499.496 587.09 487.788Z" fill="#231F20"/>
<path d="M583.257 483.534C586.981 483.284 589.761 479.516 589.466 475.118C589.171 470.72 585.912 467.358 582.188 467.608C578.463 467.858 575.683 471.626 575.979 476.024C576.274 480.421 579.532 483.784 583.257 483.534Z" fill="white"/>
<path d="M571.597 479.507C572.947 479.666 574.193 478.505 574.381 476.913C574.569 475.321 573.627 473.902 572.277 473.742C570.927 473.583 569.68 474.745 569.492 476.337C569.305 477.929 570.247 479.348 571.597 479.507Z" fill="white"/>
<path d="M574.474 484.586C575.224 484.674 575.917 484.029 576.021 483.145C576.125 482.26 575.602 481.472 574.852 481.383C574.102 481.295 573.409 481.94 573.305 482.825C573.201 483.709 573.724 484.498 574.474 484.586Z" fill="white"/>
<path opacity="0.22" d="M582.629 376.777C582.621 375.044 581.216 373.646 579.482 373.664C578.443 373.666 561.056 373.912 535.464 382.638C519.92 374.532 509.309 371.542 508.562 371.342C506.886 370.883 505.172 371.868 504.714 373.534C504.255 375.2 505.24 376.924 506.906 377.382C507.058 377.429 515.055 379.688 527.308 385.611C517.571 389.395 506.886 394.375 495.626 400.937C494.133 401.808 493.628 403.731 494.499 405.224C495.029 406.126 495.931 406.667 496.898 406.762C497.532 406.825 498.185 406.7 498.786 406.35C511.93 398.684 524.282 393.29 534.933 389.503C545.279 395.07 557.632 402.85 570.479 413.493C570.974 413.909 571.57 414.136 572.163 414.195C573.161 414.293 574.196 413.913 574.887 413.078C575.994 411.749 575.802 409.767 574.472 408.67C563.274 399.398 552.527 392.259 543.071 386.811C547.878 385.333 552.232 384.189 555.98 383.331C570.393 380.03 579.441 379.927 579.526 379.924C581.258 379.917 582.647 378.501 582.639 376.778L582.629 376.777Z" fill="#9C620B"/>
<path opacity="0.22" d="M640.202 637.028C624.928 632.57 612.969 625.479 603.696 617.762C618.25 601.448 624.66 587.028 625.053 586.133C625.745 584.543 625.013 582.707 623.435 582.005C621.855 581.314 619.999 582.033 619.307 583.623C619.212 583.834 612.985 597.789 598.957 613.557C581.505 597.032 575.495 579.339 575.382 578.992C574.852 577.344 573.083 576.445 571.435 576.975C569.787 577.505 568.888 579.274 569.418 580.922C569.813 582.137 576.089 600.854 594.578 618.257C588.257 624.75 580.635 631.356 571.579 637.274C570.132 638.223 569.719 640.166 570.668 641.614C571.205 642.444 572.071 642.928 572.986 643.019C573.672 643.086 574.38 642.925 575.008 642.526C584.635 636.244 592.681 629.281 599.317 622.452C609.182 630.669 621.988 638.221 638.444 643.037C638.637 643.098 638.823 643.127 639.021 643.147C640.487 643.292 641.9 642.371 642.329 640.902C642.818 639.239 641.857 637.496 640.203 637.018L640.202 637.028Z" fill="#9C620B"/>
<path opacity="0.22" d="M426.612 618.267C416.999 611.649 409.783 603.83 404.414 596.34C413.945 585.178 423.731 577.6 423.902 577.47C425.276 576.419 425.533 574.45 424.482 573.076C423.432 571.702 421.463 571.445 420.089 572.495C419.783 572.728 412.58 578.273 404.302 587.05C403.083 588.346 401.917 589.627 400.793 590.912C392.915 578.21 390.348 567.638 390.289 567.38C389.899 565.693 388.218 564.646 386.533 565.025C386.512 565.023 386.489 565.042 386.467 565.05C386.383 567.918 386.33 571.65 386.409 575.951C388.262 580.994 391.424 588.203 396.509 596.021C393.763 599.487 391.377 602.926 389.31 606.311C389.896 609.414 390.601 612.485 391.439 615.476C393.859 610.529 396.952 605.785 400.268 601.431C405.887 608.956 413.308 616.712 423.039 623.414C423.491 623.721 423.998 623.908 424.507 623.958C425.609 624.067 426.727 623.59 427.4 622.617C428.381 621.192 428.018 619.235 426.592 618.254L426.612 618.267Z" fill="#9C620B"/>
<g style="mix-blend-mode:overlay" opacity="0.5">
<path fill-rule="evenodd" clip-rule="evenodd" d="M699.045 592.001C699.778 586.069 700.463 579.87 701.107 573.352C702.882 549.846 701.58 527.001 697.648 505.482C696.594 499.888 695.441 494.662 694.275 489.887C694.239 489.726 694.201 489.575 694.165 489.414C694.42 491.077 707.449 579.815 614.917 637.544C531.567 689.546 458.383 672.945 412.856 655.842C415.257 658.641 417.809 661.286 420.489 663.797C420.604 663.913 420.73 664.02 420.856 664.127C421.616 664.821 422.377 665.516 423.16 666.192C423.334 666.345 423.509 666.488 423.683 666.642C424.428 667.283 425.175 667.902 425.932 668.523C426.117 668.677 426.311 668.833 426.507 668.978C427.276 669.59 428.055 670.202 428.847 670.795C429.023 670.927 429.188 671.059 429.364 671.192C430.224 671.833 431.086 672.464 431.97 673.076C432.078 673.15 432.176 673.223 432.284 673.296C435.329 675.413 438.492 677.405 441.772 679.261C441.822 679.287 441.872 679.313 441.921 679.35C442.935 679.922 443.952 680.474 444.978 681.027C445.167 681.129 445.358 681.222 445.547 681.324C446.455 681.802 447.365 682.26 448.275 682.717C448.516 682.835 448.766 682.954 449.006 683.072C449.887 683.506 450.78 683.93 451.684 684.345C451.945 684.465 452.195 684.584 452.456 684.704C453.371 685.12 454.296 685.526 455.222 685.933C455.453 686.039 455.695 686.137 455.926 686.244C456.943 686.68 457.962 687.095 458.992 687.512C459.144 687.569 459.284 687.635 459.425 687.691C463.041 689.13 466.752 690.462 470.556 691.698C470.759 691.76 470.963 691.822 471.157 691.883C472.194 692.217 473.244 692.541 474.294 692.855C474.6 692.948 474.916 693.042 475.221 693.135C476.17 693.418 477.129 693.691 478.1 693.965C478.457 694.063 478.815 694.162 479.173 694.26C480.113 694.521 481.054 694.771 481.995 695.022C482.363 695.121 482.721 695.209 483.09 695.308C484.062 695.562 485.036 695.794 486.009 696.037C486.347 696.123 486.686 696.199 487.024 696.285C488.101 696.538 489.178 696.791 490.267 697.035C490.503 697.09 490.749 697.146 490.985 697.201C493.697 697.804 496.445 698.359 499.227 698.886C499.382 698.912 499.527 698.936 499.681 698.972C500.887 699.197 502.093 699.421 503.311 699.625C503.682 699.693 504.065 699.752 504.436 699.82C505.437 699.992 506.439 700.154 507.452 700.317C507.896 700.393 508.351 700.459 508.796 700.523C509.748 700.67 510.688 700.815 511.65 700.963C512.126 701.031 512.613 701.1 513.089 701.168C514.031 701.303 514.983 701.439 515.937 701.564C516.413 701.633 516.879 701.689 517.356 701.757C518.351 701.887 519.335 702.016 520.341 702.136C520.777 702.189 521.213 702.243 521.638 702.295C522.758 702.427 523.89 702.56 525.022 702.682C525.323 702.712 525.635 702.743 525.935 702.783C527.39 702.937 528.855 703.092 530.331 703.238C530.383 703.243 530.435 703.248 530.487 703.253C613.625 711.432 683.896 694.815 699.024 591.999L699.045 592.001Z" fill="#7B3B00"/>
</g>
<ellipse cx="591.508" cy="538.934" rx="27.7649" ry="7.18057" transform="rotate(-7.43642 591.508 538.934)" fill="#FF6162" fill-opacity="0.4"/>
<ellipse cx="427.048" cy="508.18" rx="18.4977" ry="5.93316" transform="rotate(29.0972 427.048 508.18)" fill="#FF6162" fill-opacity="0.4"/>
<g filter="url(#filter7_b_584_755)">
<path d="M730.882 638.542C684.737 652.165 616.496 660.79 540.357 660.79C530.561 660.79 520.902 660.643 511.401 660.364C505.724 660.196 501 664.731 501 670.41V734.236C501 739.604 505.237 744.019 510.602 744.18C520.361 744.473 530.286 744.625 540.357 744.625C679.338 744.625 792 715.897 792 680.459V596.625C792 612.646 768.966 627.295 730.882 638.542Z" fill="white" fill-opacity="0.2"/>
<path d="M776.001 619.789C784.037 614.387 789.397 608.58 791.5 602.47V680.459C791.5 689.038 784.671 697.348 771.967 705.007C759.293 712.648 740.92 719.546 718.173 725.347C672.685 736.945 609.818 744.125 540.357 744.125C530.291 744.125 520.371 743.974 510.617 743.681C505.526 743.528 501.5 739.337 501.5 734.236V670.41C501.5 665.016 505.988 660.704 511.387 660.863C520.893 661.143 530.556 661.29 540.357 661.29C616.526 661.29 684.818 652.663 731.024 639.021L730.882 638.542L731.024 639.021C750.088 633.391 765.422 626.9 776.001 619.789Z" stroke="url(#paint16_linear_584_755)"/>
</g>
<g filter="url(#filter8_b_584_755)">
<path d="M741 670.625C737.681 671.741 734.221 672.83 730.627 673.888C704.142 681.683 670.369 687.834 632 691.657V714.625C670.369 710.802 704.142 704.65 730.627 696.855C734.221 695.797 737.681 694.709 741 693.592V670.625Z" fill="#FFD807" fill-opacity="0.6"/>
</g>
<ellipse cx="643.352" cy="702.754" rx="4.84568" ry="5.59117" transform="rotate(5.29483 643.352 702.754)" fill="white"/>
<path d="M656 698.625C666.038 697.867 695.291 693.806 732 683.625" stroke="white" stroke-width="2" stroke-linecap="round"/>
<path d="M656 703.625C661.539 703.179 672.846 701.676 688 698.625" stroke="white" stroke-width="2" stroke-linecap="round"/>
<g filter="url(#filter9_b_584_755)">
<path d="M741 737.625C737.681 738.741 734.221 739.83 730.627 740.888C704.142 748.683 670.369 754.834 632 758.657V781.625C670.369 777.801 704.142 771.65 730.627 763.855C734.221 762.797 737.681 761.709 741 760.592V737.625Z" fill="#FFD807" fill-opacity="0.6"/>
</g>
<ellipse cx="643.352" cy="769.564" rx="4.84568" ry="5.59117" transform="rotate(5.29483 643.352 769.564)" fill="white"/>
<path d="M656 765.625C666.038 764.867 695.291 760.806 732 750.625" stroke="white" stroke-width="2" stroke-linecap="round"/>
<path d="M656 770.625C661.539 770.179 672.846 768.676 688 765.625" stroke="white" stroke-width="2" stroke-linecap="round"/>
<g filter="url(#filter10_b_584_755)">
<path d="M741 704.625C737.681 705.741 734.221 706.83 730.627 707.888C704.142 715.683 670.369 721.834 632 725.657V748.625C670.369 744.802 704.142 738.65 730.627 730.855C734.221 729.797 737.681 728.709 741 727.592V704.625Z" fill="#FFD807" fill-opacity="0.6"/>
</g>
<ellipse cx="643.352" cy="736.054" rx="4.84568" ry="5.59117" transform="rotate(5.29483 643.352 736.054)" fill="white"/>
<path d="M656 731.625C664.138 730.938 684.887 727.829 712 720.625" stroke="white" stroke-width="2" stroke-linecap="round"/>
<path d="M656 736.625C658.867 736.339 663.29 735.701 669 734.625" stroke="white" stroke-width="2" stroke-linecap="round"/>
<g filter="url(#filter11_b_584_755)">
<path d="M521 727.533C521 730.256 523.18 732.48 525.904 732.52C530.708 732.589 535.548 732.625 540.422 732.625C551.178 732.625 561.777 732.456 572.181 732.13C574.871 732.045 577 729.836 577 727.145V679.809C577 676.977 574.65 674.711 571.818 674.799C561.531 675.118 551.053 675.282 540.422 675.282C535.613 675.282 530.837 675.248 526.097 675.18C523.298 675.14 521 677.393 521 680.192V727.533Z" fill="white" fill-opacity="0.4"/>
</g>
<path d="M540.252 693.046C540.252 688.401 543.96 684.625 548.519 684.625C553.078 684.625 556.785 688.401 556.785 693.046C556.785 697.69 553.078 701.467 548.519 701.467C543.96 701.467 540.252 697.69 540.252 693.046ZM552.633 705.677H544.367C535.976 705.677 533 711.936 533 717.296C533 722.09 535.503 724.625 540.24 724.625H556.76C561.497 724.625 564 722.09 564 717.296C564 711.936 561.024 705.677 552.633 705.677Z" fill="#CEFF07"/>
<g filter="url(#filter12_b_584_755)">
<path d="M415 550.191C415 545.235 411.368 541.036 406.475 540.245C401.447 539.432 396.539 538.575 391.761 537.67C356.458 531.015 328.178 522.048 310.297 511.644C296.615 503.688 289 494.881 289 485.625V537.677C289 560.861 336.619 581.185 408.126 592.569C411.744 593.145 415 590.334 415 586.671V550.191Z" fill="white" fill-opacity="0.2"/>
<path d="M289.5 537.677V491.499C292.016 498.846 299.191 505.764 310.045 512.076C328 522.523 356.346 531.502 391.668 538.161C396.451 539.067 401.363 539.925 406.395 540.738C411.05 541.491 414.5 545.484 414.5 550.191V586.671C414.5 590.03 411.515 592.602 408.204 592.075C372.472 586.387 342.739 578.469 321.953 569.092C311.559 564.404 303.428 559.362 297.903 554.073C292.379 548.784 289.5 543.289 289.5 537.677Z" stroke="url(#paint17_linear_584_755)"/>
</g>
<path fill-rule="evenodd" clip-rule="evenodd" d="M305.865 551.358C307.172 552.207 308.549 553.048 309.992 553.879C316.537 557.649 324.471 561.228 333.63 564.576V532.016C322.453 527.932 313.099 523.503 305.865 518.803L305.865 551.358ZM297.249 544.699L297.249 512.143C291.629 506.829 288.632 501.241 288.632 495.475V528.045C288.632 533.805 291.632 539.389 297.249 544.699ZM370.012 575.18C359.969 572.829 350.68 570.274 342.247 567.54V534.979C350.681 537.712 359.97 540.267 370.012 542.617L370.012 575.18ZM378.628 577.107C382.869 578.014 387.229 578.885 391.701 579.719C396.473 580.614 401.373 581.461 406.393 582.265V549.701C396.669 548.141 387.394 546.417 378.628 544.544L378.628 577.107Z" fill="white" fill-opacity="0.5"/>
<g filter="url(#filter13_b_584_755)">
<path d="M337 221.268C337 218.511 334.274 216.581 331.697 217.56C304.747 227.79 289 240.137 289 253.431V339.625C289 325.48 306.824 312.409 337 301.818V221.268Z" fill="white" fill-opacity="0.06"/>
</g>
<g filter="url(#filter14_b_584_755)">
<path d="M425 319.053C425 314.034 421.276 309.801 416.309 309.084C391.25 305.466 368.881 300.789 350.151 295.295C312.046 284.115 289 269.552 289 253.625V336.966C289 360.923 341.128 381.795 418.216 392.699C421.805 393.207 425 390.409 425 386.784V319.053Z" fill="white" fill-opacity="0.2"/>
<path d="M350.01 295.775L350.01 295.775C368.768 301.277 391.161 305.958 416.237 309.579C420.963 310.261 424.5 314.287 424.5 319.053V386.784C424.5 390.107 421.571 392.669 418.286 392.204C379.764 386.755 347.507 378.819 324.895 369.267C313.587 364.49 304.718 359.32 298.684 353.877C292.65 348.432 289.5 342.76 289.5 336.966V259.435C291.604 265.512 296.968 271.286 305.009 276.656C315.593 283.725 330.935 290.178 350.01 295.775Z" stroke="url(#paint18_linear_584_755)"/>
</g>
<path fill-rule="evenodd" clip-rule="evenodd" d="M361.476 332.696L380.988 349.769L395.404 325.056C400.52 329.277 404.237 335.723 405.285 343.292C407.316 357.957 398.559 371.287 385.727 373.064C372.895 374.841 360.846 364.392 358.815 349.727C357.961 343.561 359.014 337.63 361.476 332.696Z" fill="white" fill-opacity="0.5"/>
<path d="M404.719 342.97C406.72 357.426 398.086 370.447 385.588 372.177C373.089 373.908 361.241 363.724 359.24 349.268C357.238 334.812 365.872 321.791 378.371 320.06C390.869 318.329 402.717 328.514 404.719 342.97Z" stroke="white"/>
<path fill-rule="evenodd" clip-rule="evenodd" d="M394.803 318.146C390.166 314.668 384.506 312.958 378.684 313.764C370.951 314.835 364.699 320.1 361.395 327.326L379.968 343.577L394.803 318.146Z" fill="#CEFF07"/>
<path fill-rule="evenodd" clip-rule="evenodd" d="M344.162 309.793V393.314C330.311 388.944 318.677 384.102 309.695 378.897V295.376C318.677 300.58 330.311 305.423 344.162 309.793Z" fill="white" fill-opacity="0.2"/>
<g filter="url(#filter15_d_584_755)">
<path d="M792 347.625C792 386.285 679.4 417.625 540.5 417.625C401.6 417.625 289 386.285 289 347.625" stroke="#FFD807"/>
</g>
<g filter="url(#filter16_d_584_755)">
<path d="M792 567.625C792 606.285 679.4 637.625 540.5 637.625C401.6 637.625 289 606.285 289 567.625" stroke="#FFD807"/>
</g>
<path d="M706 269.836C706 271.771 707.805 273.2 709.685 272.743C720.133 270.202 729.906 267.482 738.928 264.601C740.165 264.206 741 263.054 741 261.755L741 226.758C741 224.719 739.009 223.273 737.063 223.883C728.164 226.67 718.557 229.303 708.311 231.765C706.958 232.09 706 233.298 706 234.69L706 269.836Z" fill="white" fill-opacity="0.5"/>
<path d="M731.678 247.131L731.692 237.529C731.692 235.399 730.646 234.643 728.545 235.276L715.933 239.063C713.84 239.688 712.786 241.076 712.786 243.206L712.764 259.212L715.919 255.062L728.523 251.275C730.624 250.642 731.678 249.261 731.678 247.124V247.131ZM723.275 248.018L718.019 249.596C717.46 249.763 717.009 249.436 717.009 248.869C717.009 248.302 717.467 247.706 718.027 247.538L723.282 245.961C723.842 245.794 724.293 246.121 724.293 246.688C724.293 247.255 723.835 247.851 723.275 248.018ZM726.43 242.806L718.027 245.329C717.467 245.496 717.016 245.169 717.016 244.602C717.016 244.035 717.474 243.439 718.034 243.271L726.437 240.749C726.997 240.582 727.447 240.909 727.447 241.476C727.447 242.043 726.989 242.639 726.43 242.806ZM737.079 243.686L737.064 257.402L734.367 255.469L723.566 258.718C721.77 259.256 720.869 258.609 720.869 256.785V256.072C720.869 255.781 721.087 255.585 721.283 255.527L728.53 253.354C731.772 252.38 733.706 249.821 733.706 246.528V242.37C733.706 242.05 733.982 241.876 734.113 241.839L734.389 241.76C736.185 241.222 737.086 241.869 737.086 243.693L737.079 243.686Z" fill="#CEFF07"/>
<path d="M791.5 225.625C791.5 235.03 784.647 244.106 771.961 252.454C759.296 260.788 740.936 268.313 718.203 274.64C672.746 287.293 609.918 295.125 540.5 295.125C471.082 295.125 408.254 287.293 362.797 274.64C340.064 268.313 321.704 260.788 309.039 252.454C296.353 244.106 289.5 235.03 289.5 225.625C289.5 216.22 296.353 207.143 309.039 198.795C321.704 190.461 340.064 182.936 362.797 176.609C408.254 163.957 471.082 156.125 540.5 156.125C599.563 156.125 653.858 161.794 696.743 171.28C725.708 177.687 749.441 185.828 765.921 195.123C782.438 204.438 791.5 214.813 791.5 225.625Z" stroke="#FFD807" stroke-opacity="0.2"/>
<g filter="url(#filter17_b_584_755)">
<path d="M721 512.852C721 516.782 724.723 519.653 728.503 518.573C768.009 507.287 792 492.432 792 476.157V392.625C792 408.588 768.912 423.184 730.74 434.391C729.981 434.613 729.216 434.835 728.446 435.055C724.073 436.303 721 440.262 721 444.809V512.852Z" fill="white" fill-opacity="0.2"/>
<path d="M730.881 434.871L730.881 434.87C749.989 429.261 765.359 422.793 775.962 415.707C784.02 410.324 789.393 404.535 791.5 398.443V476.157C791.5 484.032 785.69 491.684 774.793 498.817C763.917 505.937 748.097 512.455 728.366 518.092C724.913 519.078 721.5 516.458 721.5 512.852V444.809C721.5 440.492 724.419 436.724 728.583 435.536C729.355 435.315 730.121 435.094 730.881 434.871Z" stroke="url(#paint19_linear_584_755)"/>
</g>
<path d="M783 428.625C779.55 431.415 775.368 434.123 770.51 436.734V488.315C775.368 485.704 779.55 482.997 783 480.207V428.625Z" fill="#FFE34E"/>
<path d="M746.49 498.607C742.535 499.989 738.368 501.329 734 502.625V451.042C738.368 449.747 742.535 448.407 746.49 447.025V498.607Z" fill="#FFE34E"/>
<path d="M764.745 491.22C760.91 493.036 756.739 494.799 752.255 496.505V444.924C756.739 443.218 760.91 441.454 764.745 439.639V491.22Z" fill="#FFE34E"/>
<defs>
<filter id="filter0_f_584_755" x="339" y="39.6246" width="651" height="661" filterUnits="userSpaceOnUse" color-interpolation-filters="sRGB">
<feFlood flood-opacity="0" result="BackgroundImageFix"/>
<feBlend mode="normal" in="SourceGraphic" in2="BackgroundImageFix" result="shape"/>
<feGaussianBlur stdDeviation="100" result="effect1_foregroundBlur_584_755"/>
</filter>
<filter id="filter1_d_584_755" x="278.5" y="267.125" width="524" height="90.5" filterUnits="userSpaceOnUse" color-interpolation-filters="sRGB">
<feFlood flood-opacity="0" result="BackgroundImageFix"/>
<feColorMatrix in="SourceAlpha" type="matrix" values="0 0 0 0 0 0 0 0 0 0 0 0 0 0 0 0 0 0 127 0" result="hardAlpha"/>
<feOffset/>
<feGaussianBlur stdDeviation="5"/>
<feComposite in2="hardAlpha" operator="out"/>
<feColorMatrix type="matrix" values="0 0 0 0 0.807843 0 0 0 0 1 0 0 0 0 0.027451 0 0 0 1 0"/>
<feBlend mode="normal" in2="BackgroundImageFix" result="effect1_dropShadow_584_755"/>
<feBlend mode="normal" in="SourceGraphic" in2="effect1_dropShadow_584_755" result="shape"/>
</filter>
<filter id="filter2_d_584_755" x="278.5" y="487.125" width="524" height="90.5" filterUnits="userSpaceOnUse" color-interpolation-filters="sRGB">
<feFlood flood-opacity="0" result="BackgroundImageFix"/>
<feColorMatrix in="SourceAlpha" type="matrix" values="0 0 0 0 0 0 0 0 0 0 0 0 0 0 0 0 0 0 127 0" result="hardAlpha"/>
<feOffset/>
<feGaussianBlur stdDeviation="5"/>
<feComposite in2="hardAlpha" operator="out"/>
<feColorMatrix type="matrix" values="0 0 0 0 0.807843 0 0 0 0 1 0 0 0 0 0.027451 0 0 0 1 0"/>
<feBlend mode="normal" in2="BackgroundImageFix" result="effect1_dropShadow_584_755"/>
<feBlend mode="normal" in="SourceGraphic" in2="effect1_dropShadow_584_755" result="shape"/>
</filter>
<filter id="filter3_f_584_755" x="147.687" y="107.75" width="832.448" height="867.808" filterUnits="userSpaceOnUse" color-interpolation-filters="sRGB">
<feFlood flood-opacity="0" result="BackgroundImageFix"/>
<feBlend mode="normal" in="SourceGraphic" in2="BackgroundImageFix" result="shape"/>
<feGaussianBlur stdDeviation="100" result="effect1_foregroundBlur_584_755"/>
</filter>
<filter id="filter4_f_584_755" x="0.58374" y="0.00088501" width="887.543" height="900.853" filterUnits="userSpaceOnUse" color-interpolation-filters="sRGB">
<feFlood flood-opacity="0" result="BackgroundImageFix"/>
<feBlend mode="normal" in="SourceGraphic" in2="BackgroundImageFix" result="shape"/>
<feGaussianBlur stdDeviation="100" result="effect1_foregroundBlur_584_755"/>
</filter>
<filter id="filter5_b_584_755" x="275" y="408.625" width="283" height="144" filterUnits="userSpaceOnUse" color-interpolation-filters="sRGB">
<feFlood flood-opacity="0" result="BackgroundImageFix"/>
<feGaussianBlur in="BackgroundImageFix" stdDeviation="7"/>
<feComposite in2="SourceAlpha" operator="in" result="effect1_backgroundBlur_584_755"/>
<feBlend mode="normal" in="SourceGraphic" in2="effect1_backgroundBlur_584_755" result="shape"/>
</filter>
<filter id="filter6_b_584_755" x="669" y="530.625" width="137" height="167" filterUnits="userSpaceOnUse" color-interpolation-filters="sRGB">
<feFlood flood-opacity="0" result="BackgroundImageFix"/>
<feGaussianBlur in="BackgroundImageFix" stdDeviation="7"/>
<feComposite in2="SourceAlpha" operator="in" result="effect1_backgroundBlur_584_755"/>
<feBlend mode="normal" in="SourceGraphic" in2="effect1_backgroundBlur_584_755" result="shape"/>
</filter>
<filter id="filter7_b_584_755" x="487" y="582.625" width="319" height="176" filterUnits="userSpaceOnUse" color-interpolation-filters="sRGB">
<feFlood flood-opacity="0" result="BackgroundImageFix"/>
<feGaussianBlur in="BackgroundImageFix" stdDeviation="7"/>
<feComposite in2="SourceAlpha" operator="in" result="effect1_backgroundBlur_584_755"/>
<feBlend mode="normal" in="SourceGraphic" in2="effect1_backgroundBlur_584_755" result="shape"/>
</filter>
<filter id="filter8_b_584_755" x="629" y="667.625" width="115" height="50" filterUnits="userSpaceOnUse" color-interpolation-filters="sRGB">
<feFlood flood-opacity="0" result="BackgroundImageFix"/>
<feGaussianBlur in="BackgroundImageFix" stdDeviation="1.5"/>
<feComposite in2="SourceAlpha" operator="in" result="effect1_backgroundBlur_584_755"/>
<feBlend mode="normal" in="SourceGraphic" in2="effect1_backgroundBlur_584_755" result="shape"/>
</filter>
<filter id="filter9_b_584_755" x="629" y="734.625" width="115" height="50" filterUnits="userSpaceOnUse" color-interpolation-filters="sRGB">
<feFlood flood-opacity="0" result="BackgroundImageFix"/>
<feGaussianBlur in="BackgroundImageFix" stdDeviation="1.5"/>
<feComposite in2="SourceAlpha" operator="in" result="effect1_backgroundBlur_584_755"/>
<feBlend mode="normal" in="SourceGraphic" in2="effect1_backgroundBlur_584_755" result="shape"/>
</filter>
<filter id="filter10_b_584_755" x="629" y="701.625" width="115" height="50" filterUnits="userSpaceOnUse" color-interpolation-filters="sRGB">
<feFlood flood-opacity="0" result="BackgroundImageFix"/>
<feGaussianBlur in="BackgroundImageFix" stdDeviation="1.5"/>
<feComposite in2="SourceAlpha" operator="in" result="effect1_backgroundBlur_584_755"/>
<feBlend mode="normal" in="SourceGraphic" in2="effect1_backgroundBlur_584_755" result="shape"/>
</filter>
<filter id="filter11_b_584_755" x="507" y="660.796" width="84" height="85.8281" filterUnits="userSpaceOnUse" color-interpolation-filters="sRGB">
<feFlood flood-opacity="0" result="BackgroundImageFix"/>
<feGaussianBlur in="BackgroundImageFix" stdDeviation="7"/>
<feComposite in2="SourceAlpha" operator="in" result="effect1_backgroundBlur_584_755"/>
<feBlend mode="normal" in="SourceGraphic" in2="effect1_backgroundBlur_584_755" result="shape"/>
</filter>
<filter id="filter12_b_584_755" x="275" y="471.625" width="154" height="135.019" filterUnits="userSpaceOnUse" color-interpolation-filters="sRGB">
<feFlood flood-opacity="0" result="BackgroundImageFix"/>
<feGaussianBlur in="BackgroundImageFix" stdDeviation="7"/>
<feComposite in2="SourceAlpha" operator="in" result="effect1_backgroundBlur_584_755"/>
<feBlend mode="normal" in="SourceGraphic" in2="effect1_backgroundBlur_584_755" result="shape"/>
</filter>
<filter id="filter13_b_584_755" x="275" y="203.302" width="76" height="150.323" filterUnits="userSpaceOnUse" color-interpolation-filters="sRGB">
<feFlood flood-opacity="0" result="BackgroundImageFix"/>
<feGaussianBlur in="BackgroundImageFix" stdDeviation="7"/>
<feComposite in2="SourceAlpha" operator="in" result="effect1_backgroundBlur_584_755"/>
<feBlend mode="normal" in="SourceGraphic" in2="effect1_backgroundBlur_584_755" result="shape"/>
</filter>
<filter id="filter14_b_584_755" x="275" y="239.625" width="164" height="167.134" filterUnits="userSpaceOnUse" color-interpolation-filters="sRGB">
<feFlood flood-opacity="0" result="BackgroundImageFix"/>
<feGaussianBlur in="BackgroundImageFix" stdDeviation="7"/>
<feComposite in2="SourceAlpha" operator="in" result="effect1_backgroundBlur_584_755"/>
<feBlend mode="normal" in="SourceGraphic" in2="effect1_backgroundBlur_584_755" result="shape"/>
</filter>
<filter id="filter15_d_584_755" x="278.5" y="337.625" width="524" height="90.5" filterUnits="userSpaceOnUse" color-interpolation-filters="sRGB">
<feFlood flood-opacity="0" result="BackgroundImageFix"/>
<feColorMatrix in="SourceAlpha" type="matrix" values="0 0 0 0 0 0 0 0 0 0 0 0 0 0 0 0 0 0 127 0" result="hardAlpha"/>
<feOffset/>
<feGaussianBlur stdDeviation="5"/>
<feComposite in2="hardAlpha" operator="out"/>
<feColorMatrix type="matrix" values="0 0 0 0 0.807843 0 0 0 0 1 0 0 0 0 0.027451 0 0 0 1 0"/>
<feBlend mode="normal" in2="BackgroundImageFix" result="effect1_dropShadow_584_755"/>
<feBlend mode="normal" in="SourceGraphic" in2="effect1_dropShadow_584_755" result="shape"/>
</filter>
<filter id="filter16_d_584_755" x="278.5" y="557.625" width="524" height="90.5" filterUnits="userSpaceOnUse" color-interpolation-filters="sRGB">
<feFlood flood-opacity="0" result="BackgroundImageFix"/>
<feColorMatrix in="SourceAlpha" type="matrix" values="0 0 0 0 0 0 0 0 0 0 0 0 0 0 0 0 0 0 127 0" result="hardAlpha"/>
<feOffset/>
<feGaussianBlur stdDeviation="5"/>
<feComposite in2="hardAlpha" operator="out"/>
<feColorMatrix type="matrix" values="0 0 0 0 0.807843 0 0 0 0 1 0 0 0 0 0.027451 0 0 0 1 0"/>
<feBlend mode="normal" in2="BackgroundImageFix" result="effect1_dropShadow_584_755"/>
<feBlend mode="normal" in="SourceGraphic" in2="effect1_dropShadow_584_755" result="shape"/>
</filter>
<filter id="filter17_b_584_755" x="707" y="378.625" width="99" height="154.178" filterUnits="userSpaceOnUse" color-interpolation-filters="sRGB">
<feFlood flood-opacity="0" result="BackgroundImageFix"/>
<feGaussianBlur in="BackgroundImageFix" stdDeviation="7"/>
<feComposite in2="SourceAlpha" operator="in" result="effect1_backgroundBlur_584_755"/>
<feBlend mode="normal" in="SourceGraphic" in2="effect1_backgroundBlur_584_755" result="shape"/>
</filter>
<linearGradient id="paint0_linear_584_755" x1="790" y1="500.625" x2="790" y2="239.625" gradientUnits="userSpaceOnUse">
<stop stop-color="#00A3FF"/>
<stop offset="1" stop-color="#4255FF"/>
</linearGradient>
<linearGradient id="paint1_linear_584_755" x1="821" y1="729.618" x2="729.356" y2="269.526" gradientUnits="userSpaceOnUse">
<stop stop-color="#00A3FF"/>
<stop offset="1" stop-color="#4255FF"/>
</linearGradient>
<linearGradient id="paint2_linear_584_755" x1="765.711" y1="587.562" x2="568.936" y2="124" gradientUnits="userSpaceOnUse">
<stop stop-color="#00A3FF"/>
<stop offset="1" stop-color="#4255FF"/>
</linearGradient>
<linearGradient id="paint3_linear_584_755" x1="492.604" y1="193.517" x2="516.077" y2="387.551" gradientUnits="userSpaceOnUse">
<stop stop-color="#5CA568"/>
<stop offset="1" stop-color="#05220A"/>
</linearGradient>
<linearGradient id="paint4_linear_584_755" x1="649.125" y1="306.691" x2="674.306" y2="394.804" gradientUnits="userSpaceOnUse">
<stop stop-color="#619C5D"/>
<stop offset="1" stop-color="#4FA257"/>
</linearGradient>
<linearGradient id="paint5_linear_584_755" x1="785.648" y1="277.808" x2="641.525" y2="372.751" gradientUnits="userSpaceOnUse">
<stop stop-color="#36744B"/>
<stop offset="1" stop-color="#4FA257"/>
</linearGradient>
<linearGradient id="paint6_linear_584_755" x1="608.913" y1="228.487" x2="533.784" y2="419.526" gradientUnits="userSpaceOnUse">
<stop stop-color="#2D6542"/>
<stop offset="0.27" stop-color="#438554"/>
<stop offset="0.55" stop-color="#55A062"/>
<stop offset="0.81" stop-color="#61B06B"/>
<stop offset="1" stop-color="#65B66F"/>
</linearGradient>
<linearGradient id="paint7_linear_584_755" x1="545.06" y1="435.126" x2="638.478" y2="214.191" gradientUnits="userSpaceOnUse">
<stop stop-color="#3C7E4F"/>
<stop offset="0.14" stop-color="#55985C"/>
<stop offset="0.31" stop-color="#6DB169"/>
<stop offset="0.46" stop-color="#7BC071"/>
<stop offset="0.58" stop-color="#81C674"/>
<stop offset="0.68" stop-color="#7CC171"/>
<stop offset="0.78" stop-color="#70B46B"/>
<stop offset="0.88" stop-color="#5B9F60"/>
<stop offset="0.99" stop-color="#3F8150"/>
<stop offset="1" stop-color="#3C7E4F"/>
</linearGradient>
<linearGradient id="paint8_linear_584_755" x1="569.961" y1="418.848" x2="514.866" y2="703.079" gradientUnits="userSpaceOnUse">
<stop stop-color="#FFE24E"/>
<stop offset="1" stop-color="#D89B00"/>
</linearGradient>
<linearGradient id="paint9_linear_584_755" x1="498.134" y1="527.624" x2="490.661" y2="566.759" gradientUnits="userSpaceOnUse">
<stop stop-color="#D57675"/>
<stop offset="1" stop-color="#BC4C52"/>
</linearGradient>
<linearGradient id="paint10_linear_584_755" x1="469.582" y1="546.696" x2="519.367" y2="548.132" gradientUnits="userSpaceOnUse">
<stop stop-color="#BC4C52"/>
<stop offset="1" stop-color="#5E2A30"/>
</linearGradient>
<linearGradient id="paint11_linear_584_755" x1="499.536" y1="520.277" x2="491.602" y2="567.28" gradientUnits="userSpaceOnUse">
<stop stop-color="#FFE16F"/>
<stop offset="1" stop-color="#F7CC5D" stop-opacity="0"/>
</linearGradient>
<linearGradient id="paint12_linear_584_755" x1="451.647" y1="441.501" x2="462.467" y2="513.698" gradientUnits="userSpaceOnUse">
<stop stop-color="#FFF5C8"/>
<stop offset="1" stop-color="#FFC73D" stop-opacity="0"/>
</linearGradient>
<linearGradient id="paint13_linear_584_755" x1="466.669" y1="495.281" x2="436.93" y2="461.797" gradientUnits="userSpaceOnUse">
<stop stop-color="#FDE46D" stop-opacity="0"/>
<stop offset="1" stop-color="#D09A08"/>
</linearGradient>
<linearGradient id="paint14_linear_584_755" x1="572.505" y1="456.227" x2="585.726" y2="544.407" gradientUnits="userSpaceOnUse">
<stop stop-color="#FCF7BC"/>
<stop offset="1" stop-color="#FFC73D" stop-opacity="0"/>
</linearGradient>
<linearGradient id="paint15_linear_584_755" x1="590.865" y1="521.915" x2="554.531" y2="481.021" gradientUnits="userSpaceOnUse">
<stop stop-color="#FDE46D" stop-opacity="0"/>
<stop offset="1" stop-color="#CF9908"/>
</linearGradient>
<linearGradient id="paint16_linear_584_755" x1="517.752" y1="670.625" x2="809.234" y2="659.183" gradientUnits="userSpaceOnUse">
<stop stop-color="white"/>
<stop offset="1" stop-color="white" stop-opacity="0"/>
</linearGradient>
<linearGradient id="paint17_linear_584_755" x1="415" y1="571.928" x2="300.641" y2="528.825" gradientUnits="userSpaceOnUse">
<stop stop-color="white"/>
<stop offset="1" stop-color="white" stop-opacity="0"/>
</linearGradient>
<linearGradient id="paint18_linear_584_755" x1="563.394" y1="327.189" x2="271.763" y2="315.668" gradientUnits="userSpaceOnUse">
<stop stop-color="white"/>
<stop offset="1" stop-color="white" stop-opacity="0"/>
</linearGradient>
<linearGradient id="paint19_linear_584_755" x1="517.115" y1="466.358" x2="809.268" y2="454.822" gradientUnits="userSpaceOnUse">
<stop stop-color="white"/>
<stop offset="1" stop-color="white" stop-opacity="0"/>
</linearGradient>
</defs>
</svg>
